<svg width="218" height="256" viewBox="0 0 218 256" fill="none" xmlns="http://www.w3.org/2000/svg">
<path d="M136.007 244.044H82.0057C60.3531 244.044 39.5873 235.443 24.2766 220.132C8.9659 204.821 0.364441 184.056 0.364441 162.403C0.364441 140.751 8.9659 119.985 24.2766 104.674C39.5873 89.3634 60.3531 80.7619 82.0057 80.7619H136.007V105.98H82.0057C67.045 105.98 52.6971 111.923 42.1183 122.502C31.5396 133.081 25.5965 147.429 25.5965 162.389C25.5965 177.35 31.5396 191.698 42.1183 202.276C52.6971 212.855 67.045 218.798 82.0057 218.798H136.007V244.044Z" fill="white"/>
<path d="M136.007 175.061H82.0056V149.808H136.007C150.968 149.808 165.316 143.865 175.895 133.286C186.474 122.707 192.417 108.359 192.417 93.3988C192.417 78.4382 186.474 64.0903 175.895 53.5115C165.316 42.9327 150.968 36.9896 136.007 36.9896H82.0056V11.7786H136.007C157.66 11.7786 178.426 20.38 193.737 35.6907C209.047 51.0014 217.649 71.7672 217.649 93.4198C217.649 115.072 209.047 135.838 193.737 151.149C178.426 166.46 157.66 175.061 136.007 175.061Z" fill="white"/>
<path d="M82.0057 186.393C95.2472 186.393 105.982 175.659 105.982 162.417C105.982 149.175 95.2472 138.441 82.0057 138.441C68.7641 138.441 58.0297 149.175 58.0297 162.417C58.0297 175.659 68.7641 186.393 82.0057 186.393Z" fill="white"/>
<path d="M82.0057 48.3566C95.2472 48.3566 105.982 37.6222 105.982 24.3806C105.982 11.139 95.2472 0.404604 82.0057 0.404604C68.7641 0.404604 58.0297 11.139 58.0297 24.3806C58.0297 37.6222 68.7641 48.3566 82.0057 48.3566Z" fill="white"/>
<path d="M136.007 255.411C149.249 255.411 159.984 244.677 159.984 231.435C159.984 218.194 149.249 207.459 136.007 207.459C122.766 207.459 112.031 218.194 112.031 231.435C112.031 244.677 122.766 255.411 136.007 255.411Z" fill="white"/>
<path d="M136.007 117.375C149.249 117.375 159.984 106.64 159.984 93.3988C159.984 80.1573 149.249 69.4228 136.007 69.4228C122.766 69.4228 112.031 80.1573 112.031 93.3988C112.031 106.64 122.766 117.375 136.007 117.375Z" fill="white"/>
</svg>
